# xmcd CD database file
#
# Track frame offsets:
#	150
#	7802
#	22504
#	43206
#	62483
#
# Disc length: 965 seconds
#
# Revision: 0
# Processed by: cddbd v1.4PL0 Copyright (c) Steve Scherf et al.
# Submitted via: CDex 1.50Beta7
#
DISCID=2a03c305
DTITLE=Anna Maria Jopek - Chwilozofia 32-Beatowa
DYEAR=1996
DGENRE=Jazz
TTITLE0=Microsoft - Start 32
TTITLE1=Cichy wielbiciel
TTITLE2=Chwila chwilozofii
TTITLE3=By³am w Nowym Jorku
TTITLE4=Bóg siê rodzi
EXTD=YEAR: 1996
EXTT0=
EXTT1=
EXTT2=
EXTT3=
EXTT4=
PLAYORDER=
